<mxfile host="app.diagrams.net" modified="2021-09-07T04:49:59.041Z" agent="5.0 (X11)" etag="DLYyBR5RBKh2qPN5kmDh" version="15.0.6" type="github">
  <diagram id="-BG7lShjrqYhN6u9oOaw" name="Page-1">
    <mxGraphModel dx="461" dy="745" grid="1" gridSize="10" guides="1" tooltips="1" connect="1" arrows="1" fold="1" page="1" pageScale="1" pageWidth="827" pageHeight="1169" math="0" shadow="0">
      <root>
        <mxCell id="0" />
        <mxCell id="1" parent="0" />
        <mxCell id="8oxBCnsaLcjRv4_HyD2p-2" value="Pedidos" style="shape=table;startSize=30;container=1;collapsible=0;childLayout=tableLayout;fixedRows=1;rowLines=0;fontStyle=1;align=center;pointerEvents=1;" vertex="1" parent="1">
          <mxGeometry x="70" y="110" width="160" height="300" as="geometry" />
        </mxCell>
        <mxCell id="8oxBCnsaLcjRv4_HyD2p-3" value="" style="shape=partialRectangle;html=1;whiteSpace=wrap;collapsible=0;dropTarget=0;pointerEvents=1;fillColor=none;top=0;left=0;bottom=1;right=0;points=[[0,0.5],[1,0.5]];portConstraint=eastwest;" vertex="1" parent="8oxBCnsaLcjRv4_HyD2p-2">
          <mxGeometry y="30" width="160" height="30" as="geometry" />
        </mxCell>
        <mxCell id="8oxBCnsaLcjRv4_HyD2p-4" value="1" style="shape=partialRectangle;html=1;whiteSpace=wrap;connectable=0;fillColor=none;top=0;left=0;bottom=0;right=0;overflow=hidden;pointerEvents=1;" vertex="1" parent="8oxBCnsaLcjRv4_HyD2p-3">
          <mxGeometry width="36" height="30" as="geometry" />
        </mxCell>
        <mxCell id="8oxBCnsaLcjRv4_HyD2p-5" value="id_pedido" style="shape=partialRectangle;html=1;whiteSpace=wrap;connectable=0;fillColor=none;top=0;left=0;bottom=0;right=0;align=left;spacingLeft=6;overflow=hidden;pointerEvents=1;" vertex="1" parent="8oxBCnsaLcjRv4_HyD2p-3">
          <mxGeometry x="36" width="124" height="30" as="geometry" />
        </mxCell>
        <mxCell id="8oxBCnsaLcjRv4_HyD2p-6" value="" style="shape=partialRectangle;html=1;whiteSpace=wrap;collapsible=0;dropTarget=0;pointerEvents=1;fillColor=none;top=0;left=0;bottom=0;right=0;points=[[0,0.5],[1,0.5]];portConstraint=eastwest;" vertex="1" parent="8oxBCnsaLcjRv4_HyD2p-2">
          <mxGeometry y="60" width="160" height="30" as="geometry" />
        </mxCell>
        <mxCell id="8oxBCnsaLcjRv4_HyD2p-7" value="2" style="shape=partialRectangle;html=1;whiteSpace=wrap;connectable=0;fillColor=none;top=0;left=0;bottom=0;right=0;overflow=hidden;pointerEvents=1;" vertex="1" parent="8oxBCnsaLcjRv4_HyD2p-6">
          <mxGeometry width="36" height="30" as="geometry" />
        </mxCell>
        <mxCell id="8oxBCnsaLcjRv4_HyD2p-8" value="n_pedido" style="shape=partialRectangle;html=1;whiteSpace=wrap;connectable=0;fillColor=none;top=0;left=0;bottom=0;right=0;align=left;spacingLeft=6;overflow=hidden;pointerEvents=1;" vertex="1" parent="8oxBCnsaLcjRv4_HyD2p-6">
          <mxGeometry x="36" width="124" height="30" as="geometry" />
        </mxCell>
        <mxCell id="8oxBCnsaLcjRv4_HyD2p-9" value="" style="shape=partialRectangle;html=1;whiteSpace=wrap;collapsible=0;dropTarget=0;pointerEvents=1;fillColor=none;top=0;left=0;bottom=0;right=0;points=[[0,0.5],[1,0.5]];portConstraint=eastwest;" vertex="1" parent="8oxBCnsaLcjRv4_HyD2p-2">
          <mxGeometry y="90" width="160" height="30" as="geometry" />
        </mxCell>
        <mxCell id="8oxBCnsaLcjRv4_HyD2p-10" value="3" style="shape=partialRectangle;html=1;whiteSpace=wrap;connectable=0;fillColor=none;top=0;left=0;bottom=0;right=0;overflow=hidden;pointerEvents=1;" vertex="1" parent="8oxBCnsaLcjRv4_HyD2p-9">
          <mxGeometry width="36" height="30" as="geometry" />
        </mxCell>
        <mxCell id="8oxBCnsaLcjRv4_HyD2p-11" value="valor_total" style="shape=partialRectangle;html=1;whiteSpace=wrap;connectable=0;fillColor=none;top=0;left=0;bottom=0;right=0;align=left;spacingLeft=6;overflow=hidden;pointerEvents=1;" vertex="1" parent="8oxBCnsaLcjRv4_HyD2p-9">
          <mxGeometry x="36" width="124" height="30" as="geometry" />
        </mxCell>
        <mxCell id="8oxBCnsaLcjRv4_HyD2p-12" value="Comidas" style="shape=table;startSize=30;container=1;collapsible=0;childLayout=tableLayout;fixedRows=1;rowLines=0;fontStyle=1;align=center;pointerEvents=1;" vertex="1" parent="1">
          <mxGeometry x="350" y="110" width="170" height="210" as="geometry" />
        </mxCell>
        <mxCell id="8oxBCnsaLcjRv4_HyD2p-13" value="" style="shape=partialRectangle;html=1;whiteSpace=wrap;collapsible=0;dropTarget=0;pointerEvents=1;fillColor=none;top=0;left=0;bottom=1;right=0;points=[[0,0.5],[1,0.5]];portConstraint=eastwest;" vertex="1" parent="8oxBCnsaLcjRv4_HyD2p-12">
          <mxGeometry y="30" width="170" height="30" as="geometry" />
        </mxCell>
        <mxCell id="8oxBCnsaLcjRv4_HyD2p-14" value="1" style="shape=partialRectangle;html=1;whiteSpace=wrap;connectable=0;fillColor=none;top=0;left=0;bottom=0;right=0;overflow=hidden;pointerEvents=1;" vertex="1" parent="8oxBCnsaLcjRv4_HyD2p-13">
          <mxGeometry width="38" height="30" as="geometry" />
        </mxCell>
        <mxCell id="8oxBCnsaLcjRv4_HyD2p-15" value="id_comida" style="shape=partialRectangle;html=1;whiteSpace=wrap;connectable=0;fillColor=none;top=0;left=0;bottom=0;right=0;align=left;spacingLeft=6;overflow=hidden;pointerEvents=1;" vertex="1" parent="8oxBCnsaLcjRv4_HyD2p-13">
          <mxGeometry x="38" width="132" height="30" as="geometry" />
        </mxCell>
        <mxCell id="8oxBCnsaLcjRv4_HyD2p-16" value="" style="shape=partialRectangle;html=1;whiteSpace=wrap;collapsible=0;dropTarget=0;pointerEvents=1;fillColor=none;top=0;left=0;bottom=0;right=0;points=[[0,0.5],[1,0.5]];portConstraint=eastwest;" vertex="1" parent="8oxBCnsaLcjRv4_HyD2p-12">
          <mxGeometry y="60" width="170" height="30" as="geometry" />
        </mxCell>
        <mxCell id="8oxBCnsaLcjRv4_HyD2p-17" value="2" style="shape=partialRectangle;html=1;whiteSpace=wrap;connectable=0;fillColor=none;top=0;left=0;bottom=0;right=0;overflow=hidden;pointerEvents=1;" vertex="1" parent="8oxBCnsaLcjRv4_HyD2p-16">
          <mxGeometry width="38" height="30" as="geometry" />
        </mxCell>
        <mxCell id="8oxBCnsaLcjRv4_HyD2p-18" value="nombre" style="shape=partialRectangle;html=1;whiteSpace=wrap;connectable=0;fillColor=none;top=0;left=0;bottom=0;right=0;align=left;spacingLeft=6;overflow=hidden;pointerEvents=1;" vertex="1" parent="8oxBCnsaLcjRv4_HyD2p-16">
          <mxGeometry x="38" width="132" height="30" as="geometry" />
        </mxCell>
        <mxCell id="8oxBCnsaLcjRv4_HyD2p-19" value="" style="shape=partialRectangle;html=1;whiteSpace=wrap;collapsible=0;dropTarget=0;pointerEvents=1;fillColor=none;top=0;left=0;bottom=0;right=0;points=[[0,0.5],[1,0.5]];portConstraint=eastwest;" vertex="1" parent="8oxBCnsaLcjRv4_HyD2p-12">
          <mxGeometry y="90" width="170" height="30" as="geometry" />
        </mxCell>
        <mxCell id="8oxBCnsaLcjRv4_HyD2p-20" value="3" style="shape=partialRectangle;html=1;whiteSpace=wrap;connectable=0;fillColor=none;top=0;left=0;bottom=0;right=0;overflow=hidden;pointerEvents=1;" vertex="1" parent="8oxBCnsaLcjRv4_HyD2p-19">
          <mxGeometry width="38" height="30" as="geometry" />
        </mxCell>
        <mxCell id="8oxBCnsaLcjRv4_HyD2p-21" value="valor" style="shape=partialRectangle;html=1;whiteSpace=wrap;connectable=0;fillColor=none;top=0;left=0;bottom=0;right=0;align=left;spacingLeft=6;overflow=hidden;pointerEvents=1;" vertex="1" parent="8oxBCnsaLcjRv4_HyD2p-19">
          <mxGeometry x="38" width="132" height="30" as="geometry" />
        </mxCell>
        <mxCell id="8oxBCnsaLcjRv4_HyD2p-22" value="usuarios" style="shape=table;startSize=30;container=1;collapsible=0;childLayout=tableLayout;fixedRows=1;rowLines=0;fontStyle=1;align=center;pointerEvents=1;" vertex="1" parent="1">
          <mxGeometry x="610" y="110" width="180" height="150" as="geometry" />
        </mxCell>
        <mxCell id="8oxBCnsaLcjRv4_HyD2p-23" value="" style="shape=partialRectangle;html=1;whiteSpace=wrap;collapsible=0;dropTarget=0;pointerEvents=1;fillColor=none;top=0;left=0;bottom=1;right=0;points=[[0,0.5],[1,0.5]];portConstraint=eastwest;" vertex="1" parent="8oxBCnsaLcjRv4_HyD2p-22">
          <mxGeometry y="30" width="180" height="30" as="geometry" />
        </mxCell>
        <mxCell id="8oxBCnsaLcjRv4_HyD2p-24" value="1" style="shape=partialRectangle;html=1;whiteSpace=wrap;connectable=0;fillColor=none;top=0;left=0;bottom=0;right=0;overflow=hidden;pointerEvents=1;" vertex="1" parent="8oxBCnsaLcjRv4_HyD2p-23">
          <mxGeometry width="40" height="30" as="geometry" />
        </mxCell>
        <mxCell id="8oxBCnsaLcjRv4_HyD2p-25" value="id_usuario" style="shape=partialRectangle;html=1;whiteSpace=wrap;connectable=0;fillColor=none;top=0;left=0;bottom=0;right=0;align=left;spacingLeft=6;overflow=hidden;pointerEvents=1;" vertex="1" parent="8oxBCnsaLcjRv4_HyD2p-23">
          <mxGeometry x="40" width="140" height="30" as="geometry" />
        </mxCell>
        <mxCell id="8oxBCnsaLcjRv4_HyD2p-26" value="" style="shape=partialRectangle;html=1;whiteSpace=wrap;collapsible=0;dropTarget=0;pointerEvents=1;fillColor=none;top=0;left=0;bottom=0;right=0;points=[[0,0.5],[1,0.5]];portConstraint=eastwest;" vertex="1" parent="8oxBCnsaLcjRv4_HyD2p-22">
          <mxGeometry y="60" width="180" height="30" as="geometry" />
        </mxCell>
        <mxCell id="8oxBCnsaLcjRv4_HyD2p-27" value="2" style="shape=partialRectangle;html=1;whiteSpace=wrap;connectable=0;fillColor=none;top=0;left=0;bottom=0;right=0;overflow=hidden;pointerEvents=1;" vertex="1" parent="8oxBCnsaLcjRv4_HyD2p-26">
          <mxGeometry width="40" height="30" as="geometry" />
        </mxCell>
        <mxCell id="8oxBCnsaLcjRv4_HyD2p-28" value="admin" style="shape=partialRectangle;html=1;whiteSpace=wrap;connectable=0;fillColor=none;top=0;left=0;bottom=0;right=0;align=left;spacingLeft=6;overflow=hidden;pointerEvents=1;" vertex="1" parent="8oxBCnsaLcjRv4_HyD2p-26">
          <mxGeometry x="40" width="140" height="30" as="geometry" />
        </mxCell>
        <mxCell id="8oxBCnsaLcjRv4_HyD2p-29" value="" style="shape=partialRectangle;html=1;whiteSpace=wrap;collapsible=0;dropTarget=0;pointerEvents=1;fillColor=none;top=0;left=0;bottom=0;right=0;points=[[0,0.5],[1,0.5]];portConstraint=eastwest;" vertex="1" parent="8oxBCnsaLcjRv4_HyD2p-22">
          <mxGeometry y="90" width="180" height="30" as="geometry" />
        </mxCell>
        <mxCell id="8oxBCnsaLcjRv4_HyD2p-30" value="3" style="shape=partialRectangle;html=1;whiteSpace=wrap;connectable=0;fillColor=none;top=0;left=0;bottom=0;right=0;overflow=hidden;pointerEvents=1;" vertex="1" parent="8oxBCnsaLcjRv4_HyD2p-29">
          <mxGeometry width="40" height="30" as="geometry" />
        </mxCell>
        <mxCell id="8oxBCnsaLcjRv4_HyD2p-31" value="contraseña" style="shape=partialRectangle;html=1;whiteSpace=wrap;connectable=0;fillColor=none;top=0;left=0;bottom=0;right=0;align=left;spacingLeft=6;overflow=hidden;pointerEvents=1;" vertex="1" parent="8oxBCnsaLcjRv4_HyD2p-29">
          <mxGeometry x="40" width="140" height="30" as="geometry" />
        </mxCell>
        <mxCell id="8oxBCnsaLcjRv4_HyD2p-35" value="" style="shape=partialRectangle;html=1;whiteSpace=wrap;collapsible=0;dropTarget=0;pointerEvents=1;fillColor=none;top=0;left=0;bottom=0;right=0;points=[[0,0.5],[1,0.5]];portConstraint=eastwest;" vertex="1" parent="1">
          <mxGeometry x="350" y="230" width="170" height="30" as="geometry" />
        </mxCell>
        <mxCell id="8oxBCnsaLcjRv4_HyD2p-36" value="4" style="shape=partialRectangle;html=1;whiteSpace=wrap;connectable=0;fillColor=none;top=0;left=0;bottom=0;right=0;overflow=hidden;pointerEvents=1;" vertex="1" parent="8oxBCnsaLcjRv4_HyD2p-35">
          <mxGeometry width="38" height="30" as="geometry" />
        </mxCell>
        <mxCell id="8oxBCnsaLcjRv4_HyD2p-37" value="imagen" style="shape=partialRectangle;html=1;whiteSpace=wrap;connectable=0;fillColor=none;top=0;left=0;bottom=0;right=0;align=left;spacingLeft=6;overflow=hidden;pointerEvents=1;" vertex="1" parent="8oxBCnsaLcjRv4_HyD2p-35">
          <mxGeometry x="38" width="132" height="30" as="geometry" />
        </mxCell>
        <mxCell id="8oxBCnsaLcjRv4_HyD2p-38" value="" style="shape=partialRectangle;html=1;whiteSpace=wrap;collapsible=0;dropTarget=0;pointerEvents=1;fillColor=none;top=0;left=0;bottom=0;right=0;points=[[0,0.5],[1,0.5]];portConstraint=eastwest;" vertex="1" parent="1">
          <mxGeometry x="350" y="260" width="170" height="30" as="geometry" />
        </mxCell>
        <mxCell id="8oxBCnsaLcjRv4_HyD2p-39" value="5" style="shape=partialRectangle;html=1;whiteSpace=wrap;connectable=0;fillColor=none;top=0;left=0;bottom=0;right=0;overflow=hidden;pointerEvents=1;" vertex="1" parent="8oxBCnsaLcjRv4_HyD2p-38">
          <mxGeometry width="38" height="30" as="geometry" />
        </mxCell>
        <mxCell id="8oxBCnsaLcjRv4_HyD2p-40" value="valor" style="shape=partialRectangle;html=1;whiteSpace=wrap;connectable=0;fillColor=none;top=0;left=0;bottom=0;right=0;align=left;spacingLeft=6;overflow=hidden;pointerEvents=1;" vertex="1" parent="8oxBCnsaLcjRv4_HyD2p-38">
          <mxGeometry x="38" width="132" height="30" as="geometry" />
        </mxCell>
        <mxCell id="8oxBCnsaLcjRv4_HyD2p-41" value="" style="shape=partialRectangle;html=1;whiteSpace=wrap;collapsible=0;dropTarget=0;pointerEvents=1;fillColor=none;top=0;left=0;bottom=0;right=0;points=[[0,0.5],[1,0.5]];portConstraint=eastwest;" vertex="1" parent="1">
          <mxGeometry x="70" y="230" width="180" height="30" as="geometry" />
        </mxCell>
        <mxCell id="8oxBCnsaLcjRv4_HyD2p-42" value="4" style="shape=partialRectangle;html=1;whiteSpace=wrap;connectable=0;fillColor=none;top=0;left=0;bottom=0;right=0;overflow=hidden;pointerEvents=1;" vertex="1" parent="8oxBCnsaLcjRv4_HyD2p-41">
          <mxGeometry width="40" height="30" as="geometry" />
        </mxCell>
        <mxCell id="8oxBCnsaLcjRv4_HyD2p-43" value="fecha" style="shape=partialRectangle;html=1;whiteSpace=wrap;connectable=0;fillColor=none;top=0;left=0;bottom=0;right=0;align=left;spacingLeft=6;overflow=hidden;pointerEvents=1;" vertex="1" parent="8oxBCnsaLcjRv4_HyD2p-41">
          <mxGeometry x="40" width="140" height="30" as="geometry" />
        </mxCell>
        <mxCell id="8oxBCnsaLcjRv4_HyD2p-44" value="" style="shape=partialRectangle;html=1;whiteSpace=wrap;collapsible=0;dropTarget=0;pointerEvents=1;fillColor=none;top=0;left=0;bottom=0;right=0;points=[[0,0.5],[1,0.5]];portConstraint=eastwest;" vertex="1" parent="1">
          <mxGeometry x="70" y="260" width="180" height="30" as="geometry" />
        </mxCell>
        <mxCell id="8oxBCnsaLcjRv4_HyD2p-45" value="5" style="shape=partialRectangle;html=1;whiteSpace=wrap;connectable=0;fillColor=none;top=0;left=0;bottom=0;right=0;overflow=hidden;pointerEvents=1;" vertex="1" parent="8oxBCnsaLcjRv4_HyD2p-44">
          <mxGeometry width="40" height="30" as="geometry" />
        </mxCell>
        <mxCell id="8oxBCnsaLcjRv4_HyD2p-46" value="correo_cliente" style="shape=partialRectangle;html=1;whiteSpace=wrap;connectable=0;fillColor=none;top=0;left=0;bottom=0;right=0;align=left;spacingLeft=6;overflow=hidden;pointerEvents=1;" vertex="1" parent="8oxBCnsaLcjRv4_HyD2p-44">
          <mxGeometry x="40" width="140" height="30" as="geometry" />
        </mxCell>
        <mxCell id="8oxBCnsaLcjRv4_HyD2p-47" value="" style="shape=partialRectangle;html=1;whiteSpace=wrap;collapsible=0;dropTarget=0;pointerEvents=1;fillColor=none;top=0;left=0;bottom=0;right=0;points=[[0,0.5],[1,0.5]];portConstraint=eastwest;" vertex="1" parent="1">
          <mxGeometry x="70" y="290" width="180" height="30" as="geometry" />
        </mxCell>
        <mxCell id="8oxBCnsaLcjRv4_HyD2p-48" value="6" style="shape=partialRectangle;html=1;whiteSpace=wrap;connectable=0;fillColor=none;top=0;left=0;bottom=0;right=0;overflow=hidden;pointerEvents=1;" vertex="1" parent="8oxBCnsaLcjRv4_HyD2p-47">
          <mxGeometry width="40" height="30" as="geometry" />
        </mxCell>
        <mxCell id="8oxBCnsaLcjRv4_HyD2p-49" value="telefono_cliente" style="shape=partialRectangle;html=1;whiteSpace=wrap;connectable=0;fillColor=none;top=0;left=0;bottom=0;right=0;align=left;spacingLeft=6;overflow=hidden;pointerEvents=1;" vertex="1" parent="8oxBCnsaLcjRv4_HyD2p-47">
          <mxGeometry x="40" width="140" height="30" as="geometry" />
        </mxCell>
        <mxCell id="8oxBCnsaLcjRv4_HyD2p-60" value="" style="shape=partialRectangle;html=1;whiteSpace=wrap;collapsible=0;dropTarget=0;pointerEvents=1;fillColor=none;top=0;left=0;bottom=0;right=0;points=[[0,0.5],[1,0.5]];portConstraint=eastwest;" vertex="1" parent="1">
          <mxGeometry x="70" y="320" width="180" height="30" as="geometry" />
        </mxCell>
        <mxCell id="8oxBCnsaLcjRv4_HyD2p-61" value="7" style="shape=partialRectangle;html=1;whiteSpace=wrap;connectable=0;fillColor=none;top=0;left=0;bottom=0;right=0;overflow=hidden;pointerEvents=1;" vertex="1" parent="8oxBCnsaLcjRv4_HyD2p-60">
          <mxGeometry width="40" height="30" as="geometry" />
        </mxCell>
        <mxCell id="8oxBCnsaLcjRv4_HyD2p-62" value="comidas_id" style="shape=partialRectangle;html=1;whiteSpace=wrap;connectable=0;fillColor=none;top=0;left=0;bottom=0;right=0;align=left;spacingLeft=6;overflow=hidden;pointerEvents=1;" vertex="1" parent="8oxBCnsaLcjRv4_HyD2p-60">
          <mxGeometry x="40" width="140" height="30" as="geometry" />
        </mxCell>
        <mxCell id="8oxBCnsaLcjRv4_HyD2p-63" value="" style="shape=partialRectangle;html=1;whiteSpace=wrap;collapsible=0;dropTarget=0;pointerEvents=1;fillColor=none;top=0;left=0;bottom=0;right=0;points=[[0,0.5],[1,0.5]];portConstraint=eastwest;" vertex="1" parent="1">
          <mxGeometry x="350" y="290" width="170" height="30" as="geometry" />
        </mxCell>
        <mxCell id="8oxBCnsaLcjRv4_HyD2p-64" value="6" style="shape=partialRectangle;html=1;whiteSpace=wrap;connectable=0;fillColor=none;top=0;left=0;bottom=0;right=0;overflow=hidden;pointerEvents=1;" vertex="1" parent="8oxBCnsaLcjRv4_HyD2p-63">
          <mxGeometry width="38" height="30" as="geometry" />
        </mxCell>
        <mxCell id="8oxBCnsaLcjRv4_HyD2p-65" value="descripción" style="shape=partialRectangle;html=1;whiteSpace=wrap;connectable=0;fillColor=none;top=0;left=0;bottom=0;right=0;align=left;spacingLeft=6;overflow=hidden;pointerEvents=1;" vertex="1" parent="8oxBCnsaLcjRv4_HyD2p-63">
          <mxGeometry x="38" width="132" height="30" as="geometry" />
        </mxCell>
        <mxCell id="8oxBCnsaLcjRv4_HyD2p-66" value="" style="shape=partialRectangle;html=1;whiteSpace=wrap;collapsible=0;dropTarget=0;pointerEvents=1;fillColor=none;top=0;left=0;bottom=0;right=0;points=[[0,0.5],[1,0.5]];portConstraint=eastwest;" vertex="1" parent="1">
          <mxGeometry x="70" y="350" width="180" height="30" as="geometry" />
        </mxCell>
        <mxCell id="8oxBCnsaLcjRv4_HyD2p-67" value="8" style="shape=partialRectangle;html=1;whiteSpace=wrap;connectable=0;fillColor=none;top=0;left=0;bottom=0;right=0;overflow=hidden;pointerEvents=1;" vertex="1" parent="8oxBCnsaLcjRv4_HyD2p-66">
          <mxGeometry width="40" height="30" as="geometry" />
        </mxCell>
        <mxCell id="8oxBCnsaLcjRv4_HyD2p-68" value="cantidad" style="shape=partialRectangle;html=1;whiteSpace=wrap;connectable=0;fillColor=none;top=0;left=0;bottom=0;right=0;align=left;spacingLeft=6;overflow=hidden;pointerEvents=1;" vertex="1" parent="8oxBCnsaLcjRv4_HyD2p-66">
          <mxGeometry x="40" width="140" height="30" as="geometry" />
        </mxCell>
        <mxCell id="8oxBCnsaLcjRv4_HyD2p-69" value="Ventas" style="shape=table;startSize=30;container=1;collapsible=0;childLayout=tableLayout;fixedRows=1;rowLines=0;fontStyle=1;align=center;pointerEvents=1;" vertex="1" parent="1">
          <mxGeometry x="500" y="380" width="180" height="150" as="geometry" />
        </mxCell>
        <mxCell id="8oxBCnsaLcjRv4_HyD2p-70" value="" style="shape=partialRectangle;html=1;whiteSpace=wrap;collapsible=0;dropTarget=0;pointerEvents=1;fillColor=none;top=0;left=0;bottom=1;right=0;points=[[0,0.5],[1,0.5]];portConstraint=eastwest;" vertex="1" parent="8oxBCnsaLcjRv4_HyD2p-69">
          <mxGeometry y="30" width="180" height="30" as="geometry" />
        </mxCell>
        <mxCell id="8oxBCnsaLcjRv4_HyD2p-71" value="1" style="shape=partialRectangle;html=1;whiteSpace=wrap;connectable=0;fillColor=none;top=0;left=0;bottom=0;right=0;overflow=hidden;pointerEvents=1;" vertex="1" parent="8oxBCnsaLcjRv4_HyD2p-70">
          <mxGeometry width="40" height="30" as="geometry" />
        </mxCell>
        <mxCell id="8oxBCnsaLcjRv4_HyD2p-72" value="id_ventas" style="shape=partialRectangle;html=1;whiteSpace=wrap;connectable=0;fillColor=none;top=0;left=0;bottom=0;right=0;align=left;spacingLeft=6;overflow=hidden;pointerEvents=1;" vertex="1" parent="8oxBCnsaLcjRv4_HyD2p-70">
          <mxGeometry x="40" width="140" height="30" as="geometry" />
        </mxCell>
        <mxCell id="8oxBCnsaLcjRv4_HyD2p-73" value="" style="shape=partialRectangle;html=1;whiteSpace=wrap;collapsible=0;dropTarget=0;pointerEvents=1;fillColor=none;top=0;left=0;bottom=0;right=0;points=[[0,0.5],[1,0.5]];portConstraint=eastwest;" vertex="1" parent="8oxBCnsaLcjRv4_HyD2p-69">
          <mxGeometry y="60" width="180" height="30" as="geometry" />
        </mxCell>
        <mxCell id="8oxBCnsaLcjRv4_HyD2p-74" value="2" style="shape=partialRectangle;html=1;whiteSpace=wrap;connectable=0;fillColor=none;top=0;left=0;bottom=0;right=0;overflow=hidden;pointerEvents=1;" vertex="1" parent="8oxBCnsaLcjRv4_HyD2p-73">
          <mxGeometry width="40" height="30" as="geometry" />
        </mxCell>
        <mxCell id="8oxBCnsaLcjRv4_HyD2p-75" value="fecha" style="shape=partialRectangle;html=1;whiteSpace=wrap;connectable=0;fillColor=none;top=0;left=0;bottom=0;right=0;align=left;spacingLeft=6;overflow=hidden;pointerEvents=1;" vertex="1" parent="8oxBCnsaLcjRv4_HyD2p-73">
          <mxGeometry x="40" width="140" height="30" as="geometry" />
        </mxCell>
        <mxCell id="8oxBCnsaLcjRv4_HyD2p-76" value="" style="shape=partialRectangle;html=1;whiteSpace=wrap;collapsible=0;dropTarget=0;pointerEvents=1;fillColor=none;top=0;left=0;bottom=0;right=0;points=[[0,0.5],[1,0.5]];portConstraint=eastwest;" vertex="1" parent="8oxBCnsaLcjRv4_HyD2p-69">
          <mxGeometry y="90" width="180" height="30" as="geometry" />
        </mxCell>
        <mxCell id="8oxBCnsaLcjRv4_HyD2p-77" value="3" style="shape=partialRectangle;html=1;whiteSpace=wrap;connectable=0;fillColor=none;top=0;left=0;bottom=0;right=0;overflow=hidden;pointerEvents=1;" vertex="1" parent="8oxBCnsaLcjRv4_HyD2p-76">
          <mxGeometry width="40" height="30" as="geometry" />
        </mxCell>
        <mxCell id="8oxBCnsaLcjRv4_HyD2p-78" value="Value 3" style="shape=partialRectangle;html=1;whiteSpace=wrap;connectable=0;fillColor=none;top=0;left=0;bottom=0;right=0;align=left;spacingLeft=6;overflow=hidden;pointerEvents=1;" vertex="1" parent="8oxBCnsaLcjRv4_HyD2p-76">
          <mxGeometry x="40" width="140" height="30" as="geometry" />
        </mxCell>
        <mxCell id="8oxBCnsaLcjRv4_HyD2p-79" value="" style="shape=partialRectangle;html=1;whiteSpace=wrap;collapsible=0;dropTarget=0;pointerEvents=1;fillColor=none;top=0;left=0;bottom=0;right=0;points=[[0,0.5],[1,0.5]];portConstraint=eastwest;" vertex="1" parent="1">
          <mxGeometry x="70" y="380" width="180" height="30" as="geometry" />
        </mxCell>
        <mxCell id="8oxBCnsaLcjRv4_HyD2p-80" value="9" style="shape=partialRectangle;html=1;whiteSpace=wrap;connectable=0;fillColor=none;top=0;left=0;bottom=0;right=0;overflow=hidden;pointerEvents=1;" vertex="1" parent="8oxBCnsaLcjRv4_HyD2p-79">
          <mxGeometry width="40" height="30" as="geometry" />
        </mxCell>
        <mxCell id="8oxBCnsaLcjRv4_HyD2p-81" value="hora" style="shape=partialRectangle;html=1;whiteSpace=wrap;connectable=0;fillColor=none;top=0;left=0;bottom=0;right=0;align=left;spacingLeft=6;overflow=hidden;pointerEvents=1;" vertex="1" parent="8oxBCnsaLcjRv4_HyD2p-79">
          <mxGeometry x="40" width="140" height="30" as="geometry" />
        </mxCell>
        <mxCell id="8oxBCnsaLcjRv4_HyD2p-82" value="" style="shape=partialRectangle;html=1;whiteSpace=wrap;collapsible=0;dropTarget=0;pointerEvents=1;fillColor=none;top=0;left=0;bottom=0;right=0;points=[[0,0.5],[1,0.5]];portConstraint=eastwest;" vertex="1" parent="1">
          <mxGeometry x="610" y="230" width="180" height="30" as="geometry" />
        </mxCell>
        <mxCell id="8oxBCnsaLcjRv4_HyD2p-83" value="4" style="shape=partialRectangle;html=1;whiteSpace=wrap;connectable=0;fillColor=none;top=0;left=0;bottom=0;right=0;overflow=hidden;pointerEvents=1;" vertex="1" parent="8oxBCnsaLcjRv4_HyD2p-82">
          <mxGeometry width="40" height="30" as="geometry" />
        </mxCell>
        <mxCell id="8oxBCnsaLcjRv4_HyD2p-84" value="email" style="shape=partialRectangle;html=1;whiteSpace=wrap;connectable=0;fillColor=none;top=0;left=0;bottom=0;right=0;align=left;spacingLeft=6;overflow=hidden;pointerEvents=1;" vertex="1" parent="8oxBCnsaLcjRv4_HyD2p-82">
          <mxGeometry x="40" width="140" height="30" as="geometry" />
        </mxCell>
        <mxCell id="8oxBCnsaLcjRv4_HyD2p-85" value="Clientes" style="shape=table;startSize=30;container=1;collapsible=0;childLayout=tableLayout;fixedRows=1;rowLines=0;fontStyle=1;align=center;pointerEvents=1;" vertex="1" parent="1">
          <mxGeometry x="180" y="435" width="180" height="150" as="geometry" />
        </mxCell>
        <mxCell id="8oxBCnsaLcjRv4_HyD2p-86" value="" style="shape=partialRectangle;html=1;whiteSpace=wrap;collapsible=0;dropTarget=0;pointerEvents=1;fillColor=none;top=0;left=0;bottom=1;right=0;points=[[0,0.5],[1,0.5]];portConstraint=eastwest;" vertex="1" parent="8oxBCnsaLcjRv4_HyD2p-85">
          <mxGeometry y="30" width="180" height="30" as="geometry" />
        </mxCell>
        <mxCell id="8oxBCnsaLcjRv4_HyD2p-87" value="1" style="shape=partialRectangle;html=1;whiteSpace=wrap;connectable=0;fillColor=none;top=0;left=0;bottom=0;right=0;overflow=hidden;pointerEvents=1;" vertex="1" parent="8oxBCnsaLcjRv4_HyD2p-86">
          <mxGeometry width="40" height="30" as="geometry" />
        </mxCell>
        <mxCell id="8oxBCnsaLcjRv4_HyD2p-88" value="Value 1" style="shape=partialRectangle;html=1;whiteSpace=wrap;connectable=0;fillColor=none;top=0;left=0;bottom=0;right=0;align=left;spacingLeft=6;overflow=hidden;pointerEvents=1;" vertex="1" parent="8oxBCnsaLcjRv4_HyD2p-86">
          <mxGeometry x="40" width="140" height="30" as="geometry" />
        </mxCell>
        <mxCell id="8oxBCnsaLcjRv4_HyD2p-89" value="" style="shape=partialRectangle;html=1;whiteSpace=wrap;collapsible=0;dropTarget=0;pointerEvents=1;fillColor=none;top=0;left=0;bottom=0;right=0;points=[[0,0.5],[1,0.5]];portConstraint=eastwest;" vertex="1" parent="8oxBCnsaLcjRv4_HyD2p-85">
          <mxGeometry y="60" width="180" height="30" as="geometry" />
        </mxCell>
        <mxCell id="8oxBCnsaLcjRv4_HyD2p-90" value="2" style="shape=partialRectangle;html=1;whiteSpace=wrap;connectable=0;fillColor=none;top=0;left=0;bottom=0;right=0;overflow=hidden;pointerEvents=1;" vertex="1" parent="8oxBCnsaLcjRv4_HyD2p-89">
          <mxGeometry width="40" height="30" as="geometry" />
        </mxCell>
        <mxCell id="8oxBCnsaLcjRv4_HyD2p-91" value="Value 2" style="shape=partialRectangle;html=1;whiteSpace=wrap;connectable=0;fillColor=none;top=0;left=0;bottom=0;right=0;align=left;spacingLeft=6;overflow=hidden;pointerEvents=1;" vertex="1" parent="8oxBCnsaLcjRv4_HyD2p-89">
          <mxGeometry x="40" width="140" height="30" as="geometry" />
        </mxCell>
        <mxCell id="8oxBCnsaLcjRv4_HyD2p-92" value="" style="shape=partialRectangle;html=1;whiteSpace=wrap;collapsible=0;dropTarget=0;pointerEvents=1;fillColor=none;top=0;left=0;bottom=0;right=0;points=[[0,0.5],[1,0.5]];portConstraint=eastwest;" vertex="1" parent="8oxBCnsaLcjRv4_HyD2p-85">
          <mxGeometry y="90" width="180" height="30" as="geometry" />
        </mxCell>
        <mxCell id="8oxBCnsaLcjRv4_HyD2p-93" value="3" style="shape=partialRectangle;html=1;whiteSpace=wrap;connectable=0;fillColor=none;top=0;left=0;bottom=0;right=0;overflow=hidden;pointerEvents=1;" vertex="1" parent="8oxBCnsaLcjRv4_HyD2p-92">
          <mxGeometry width="40" height="30" as="geometry" />
        </mxCell>
        <mxCell id="8oxBCnsaLcjRv4_HyD2p-94" value="Value 3" style="shape=partialRectangle;html=1;whiteSpace=wrap;connectable=0;fillColor=none;top=0;left=0;bottom=0;right=0;align=left;spacingLeft=6;overflow=hidden;pointerEvents=1;" vertex="1" parent="8oxBCnsaLcjRv4_HyD2p-92">
          <mxGeometry x="40" width="140" height="30" as="geometry" />
        </mxCell>
      </root>
    </mxGraphModel>
  </diagram>
</mxfile>
